<mxfile host="app.diagrams.net" modified="2023-11-08T02:22:32.008Z" agent="Mozilla/5.0 (Windows NT 10.0; Win64; x64) AppleWebKit/537.36 (KHTML, like Gecko) Chrome/119.0.0.0 Safari/537.36" version="21.7.5" etag="S4E2k68HXbDVYWSJPrk2" type="github">
  <diagram name="第 1 页" id="ro2zhv5MuL5cfhl13Kks">
    <mxGraphModel>
      <root>
        <mxCell id="0" />
        <mxCell id="1" parent="0" />
      </root>
    </mxGraphModel>
  </diagram>
</mxfile>
